<svg width="134" height="170" viewBox="0 0 134 170" fill="none" xmlns="http://www.w3.org/2000/svg">
<path d="M66.2166 0C49.0805 0 33.5899 5.69781 20.7988 17.2023C8.00766 28.7067 0 46.8276 0 63.7751C0 100.671 43.7257 139.892 66.679 169.447C91.6733 140.186 133.373 99.6746 133.373 63.7751C133.373 45.8307 125.491 28.7788 112.579 17.2023C100.008 5.93012 83.3526 0 66.2166 0Z" fill="#EF5D50"/>
<path d="M61.8074 91.2404H71.5664V84.7232H76.4459C79.1296 84.7232 81.3254 82.5237 81.3254 79.8353V65.1716C81.3254 62.4833 79.1296 60.2838 76.4459 60.2838H61.8074V55.3959H81.3254V45.6201H71.5664V39.1029H61.8074V45.6201H56.9279C54.2441 45.6201 52.0483 47.8196 52.0483 50.508V65.1716C52.0483 67.86 54.2441 70.0595 56.9279 70.0595H71.5664V74.9474H52.0483V84.7232H61.8074V91.2404Z" fill="#F4F7F5"/>
</svg>
