<svg width="88" height="88" viewBox="0 0 88 88" fill="none" xmlns="http://www.w3.org/2000/svg">
<circle cx="44" cy="44" r="44" fill="#8C50EF"/>
<circle cx="44" cy="44" r="28" fill="#BA96F5"/>
<path d="M63.7991 24.2009C58.5105 18.9125 51.4791 16 44 16C36.5209 16 29.4895 18.9125 24.2009 24.2009C18.9125 29.4894 16 36.5209 16 44C16 51.4791 18.9125 58.5106 24.2009 63.7991C29.4895 69.0875 36.5209 72 44 72C51.4791 72 58.5105 69.0875 63.7991 63.7991C69.0875 58.5106 72 51.4791 72 44C72 36.5209 69.0875 29.4894 63.7991 24.2009ZM19.3362 42.3594C19.6904 36.9181 21.8028 31.8181 25.3999 27.7201L28.5347 30.8549C25.8498 34.009 24.1102 37.991 23.7593 42.3594H19.3362ZM30.8549 28.5347L27.7201 25.3999C31.8181 21.8029 36.9181 19.6904 42.3594 19.3362V23.7592C37.991 24.1102 34.009 25.8497 30.8549 28.5347ZM23.7593 45.6406C24.1102 50.009 25.8498 53.991 28.5348 57.1451L30.862 54.818C28.4341 51.8746 26.974 48.1046 26.974 44C26.974 34.6118 34.6118 26.9739 44 26.9739C48.1046 26.9739 51.8746 28.434 54.818 30.8619L57.1452 28.5346C53.991 25.8497 50.009 24.1102 45.6406 23.7592V19.3362C51.6257 19.7258 57.1988 22.2413 61.4788 26.5212C65.7587 30.8012 68.2743 36.3744 68.6638 42.3594H64.2408C63.8898 37.991 62.1503 34.009 59.4653 30.8549L57.138 33.1822C59.5659 36.1255 61.026 39.8955 61.026 44C61.026 53.3882 53.3881 61.0261 43.9999 61.0261C39.8953 61.0261 36.1254 59.566 33.182 57.1381L30.8549 59.4653C34.009 62.1503 37.991 63.8898 42.3594 64.2408V68.6638C36.3743 68.2743 30.8012 65.7587 26.5212 61.4788C22.2413 57.1989 19.7258 51.6256 19.3362 45.6406H23.7593ZM45.6406 64.2408C50.009 63.89 53.991 62.1503 57.1451 59.4653L60.2799 62.6001C56.182 66.1972 51.0819 68.3097 45.6406 68.6638V64.2408ZM59.4653 57.1451C62.1503 53.991 63.89 50.009 64.2408 45.6406H68.6638C68.3096 51.0819 66.1971 56.1819 62.6 60.2799L59.4653 57.1451Z" fill="#F4F7F5"/>
<path d="M38.4058 36.1173C38.4033 35.9832 38.4522 35.8532 38.5425 35.7541C38.5902 35.7025 38.6486 35.662 38.7137 35.6355C38.7787 35.609 38.8488 35.5972 38.919 35.6009H42.2963C42.4278 35.6018 42.5542 35.6521 42.6505 35.7417C42.7034 35.7891 42.7459 35.847 42.7752 35.9116C42.8046 35.9763 42.8202 36.0463 42.821 36.1173V48.8852H49.0979C49.1632 48.8842 49.228 48.8961 49.2887 48.9203C49.3493 48.9445 49.4046 48.9804 49.4513 49.0261C49.5018 49.0766 49.5411 49.1372 49.5666 49.2039C49.5922 49.2706 49.6034 49.3419 49.5995 49.4133V52.499C49.5995 52.6316 49.5532 52.7601 49.4686 52.8622C49.4237 52.9172 49.3671 52.9614 49.303 52.9918C49.2389 53.0221 49.1688 53.0378 49.0979 53.0377H38.9075C38.8381 53.0466 38.7677 53.0393 38.7017 53.0162C38.6358 52.9932 38.5761 52.9551 38.5274 52.905C38.4787 52.8549 38.4424 52.7941 38.4213 52.7275C38.4002 52.6608 38.3949 52.5902 38.4058 52.5212V36.1173Z" fill="#F4F7F5"/>
</svg>
