<svg width="443" height="249" viewBox="0 0 443 249" fill="none" xmlns="http://www.w3.org/2000/svg">
<circle cx="438.26" cy="4.00049" r="4" transform="rotate(90 438.26 4.00049)" fill="white"/>
<circle cx="438.26" cy="52.2515" r="4" transform="rotate(90 438.26 52.2515)" fill="white"/>
<circle cx="438.26" cy="100.503" r="4" transform="rotate(90 438.26 100.503)" fill="white"/>
<circle cx="438.26" cy="148.754" r="4" transform="rotate(90 438.26 148.754)" fill="white"/>
<circle cx="438.26" cy="197.005" r="4" transform="rotate(90 438.26 197.005)" fill="white"/>
<circle cx="438.26" cy="245" r="4" transform="rotate(90 438.26 245)" fill="white"/>
<circle cx="390.009" cy="4" r="4" transform="rotate(90 390.009 4)" fill="white"/>
<circle cx="390.009" cy="52.2515" r="4" transform="rotate(90 390.009 52.2515)" fill="white"/>
<circle cx="390.009" cy="100.503" r="4" transform="rotate(90 390.009 100.503)" fill="white"/>
<circle cx="390.009" cy="148.754" r="4" transform="rotate(90 390.009 148.754)" fill="white"/>
<circle cx="390.009" cy="197.005" r="4" transform="rotate(90 390.009 197.005)" fill="white"/>
<circle cx="390.009" cy="245" r="4" transform="rotate(90 390.009 245)" fill="white"/>
<circle cx="341.758" cy="4" r="4" transform="rotate(90 341.758 4)" fill="white"/>
<circle cx="341.758" cy="52.2515" r="4" transform="rotate(90 341.758 52.2515)" fill="white"/>
<circle cx="341.758" cy="100.503" r="4" transform="rotate(90 341.758 100.503)" fill="white"/>
<circle cx="341.758" cy="148.754" r="4" transform="rotate(90 341.758 148.754)" fill="white"/>
<circle cx="341.758" cy="197.005" r="4" transform="rotate(90 341.758 197.005)" fill="white"/>
<circle cx="341.758" cy="245" r="4" transform="rotate(90 341.758 245)" fill="white"/>
<circle cx="293.507" cy="4" r="4" transform="rotate(90 293.507 4)" fill="white"/>
<circle cx="293.507" cy="52.2515" r="4" transform="rotate(90 293.507 52.2515)" fill="white"/>
<circle cx="293.507" cy="100.503" r="4" transform="rotate(90 293.507 100.503)" fill="white"/>
<circle cx="293.507" cy="148.754" r="4" transform="rotate(90 293.507 148.754)" fill="white"/>
<circle cx="293.507" cy="197.005" r="4" transform="rotate(90 293.507 197.005)" fill="white"/>
<circle cx="293.507" cy="245" r="4" transform="rotate(90 293.507 245)" fill="white"/>
<circle cx="245.256" cy="4" r="4" transform="rotate(90 245.256 4)" fill="white"/>
<circle cx="245.256" cy="52.2515" r="4" transform="rotate(90 245.256 52.2515)" fill="white"/>
<circle cx="245.256" cy="100.503" r="4" transform="rotate(90 245.256 100.503)" fill="white"/>
<circle cx="245.256" cy="148.754" r="4" transform="rotate(90 245.256 148.754)" fill="white"/>
<circle cx="245.256" cy="197.005" r="4" transform="rotate(90 245.256 197.005)" fill="white"/>
<circle cx="245.256" cy="245" r="4" transform="rotate(90 245.256 245)" fill="white"/>
<circle cx="197.004" cy="4" r="4" transform="rotate(90 197.004 4)" fill="white"/>
<circle cx="197.004" cy="52.2515" r="4" transform="rotate(90 197.004 52.2515)" fill="white"/>
<circle cx="197.004" cy="100.503" r="4" transform="rotate(90 197.004 100.503)" fill="white"/>
<circle cx="197.004" cy="148.754" r="4" transform="rotate(90 197.004 148.754)" fill="white"/>
<circle cx="197.004" cy="197.005" r="4" transform="rotate(90 197.004 197.005)" fill="white"/>
<circle cx="197.004" cy="245" r="4" transform="rotate(90 197.004 245)" fill="white"/>
<circle cx="148.753" cy="4" r="4" transform="rotate(90 148.753 4)" fill="white"/>
<circle cx="148.753" cy="52.2515" r="4" transform="rotate(90 148.753 52.2515)" fill="white"/>
<circle cx="148.753" cy="100.503" r="4" transform="rotate(90 148.753 100.503)" fill="white"/>
<circle cx="148.753" cy="148.754" r="4" transform="rotate(90 148.753 148.754)" fill="white"/>
<circle cx="148.753" cy="197.005" r="4" transform="rotate(90 148.753 197.005)" fill="white"/>
<circle cx="148.753" cy="245" r="4" transform="rotate(90 148.753 245)" fill="white"/>
<circle cx="100.502" cy="4" r="4" transform="rotate(90 100.502 4)" fill="white"/>
<circle cx="100.502" cy="52.2515" r="4" transform="rotate(90 100.502 52.2515)" fill="white"/>
<circle cx="100.502" cy="100.503" r="4" transform="rotate(90 100.502 100.503)" fill="white"/>
<circle cx="100.502" cy="148.754" r="4" transform="rotate(90 100.502 148.754)" fill="white"/>
<circle cx="100.502" cy="197.005" r="4" transform="rotate(90 100.502 197.005)" fill="white"/>
<circle cx="100.502" cy="245" r="4" transform="rotate(90 100.502 245)" fill="white"/>
<circle cx="52.2512" cy="4" r="4" transform="rotate(90 52.2512 4)" fill="white"/>
<circle cx="52.2512" cy="52.2515" r="4" transform="rotate(90 52.2512 52.2515)" fill="white"/>
<circle cx="52.2512" cy="100.503" r="4" transform="rotate(90 52.2512 100.503)" fill="white"/>
<circle cx="52.2512" cy="148.754" r="4" transform="rotate(90 52.2512 148.754)" fill="white"/>
<circle cx="52.2512" cy="197.005" r="4" transform="rotate(90 52.2512 197.005)" fill="white"/>
<circle cx="52.2512" cy="245" r="4" transform="rotate(90 52.2512 245)" fill="white"/>
<circle cx="4" cy="4" r="4" transform="rotate(90 4 4)" fill="white"/>
<circle cx="4" cy="52.2515" r="4" transform="rotate(90 4 52.2515)" fill="white"/>
<circle cx="4" cy="100.503" r="4" transform="rotate(90 4 100.503)" fill="white"/>
<circle cx="4" cy="148.754" r="4" transform="rotate(90 4 148.754)" fill="white"/>
<circle cx="4" cy="197.005" r="4" transform="rotate(90 4 197.005)" fill="white"/>
<circle cx="4" cy="245" r="4" transform="rotate(90 4 245)" fill="white"/>
</svg>
