<svg width="253" height="457" viewBox="0 0 253 457" fill="none" xmlns="http://www.w3.org/2000/svg">
<g opacity="0.2">
<path d="M202.857 291.608C202.857 312.614 185.828 329.643 164.822 329.643C143.815 329.643 126.786 312.614 126.786 291.608C126.786 270.601 143.815 253.572 164.822 253.572C185.828 253.572 202.857 270.601 202.857 291.608Z" fill="#B7CA4E"/>
<path fill-rule="evenodd" clip-rule="evenodd" d="M95.0273 27.3516C114.482 9.0595 138.043 0 164.107 0C190.17 0 215.502 9.42888 234.623 27.3516C254.261 45.7582 266.25 72.8707 266.25 101.402C266.25 149.844 220.57 203.566 183.508 247.155C176.899 254.928 170.563 262.379 164.81 269.42C156.836 258.686 147.213 247.151 137.111 235.041C102.987 194.132 63.393 146.667 63.393 101.402C63.393 74.4558 75.5724 45.6436 95.0273 27.3516ZM197.466 72.1954C197.463 72.6952 197.32 73.1843 197.054 73.608C196.7 74.1318 196.298 74.6213 195.852 75.0699L186.417 84.5145C186.156 84.804 185.839 85.0377 185.485 85.2015C185.131 85.3652 184.748 85.4556 184.358 85.4672C183.812 85.4636 183.281 85.2852 182.844 84.958C182.315 84.5827 181.809 84.1769 181.328 83.7426L180.801 83.2498C180.011 82.5599 179.155 81.8536 178.167 81.1144C177.178 80.379 176.138 79.7148 175.055 79.1269C173.926 78.5272 172.747 78.0271 171.531 77.6322C170.312 77.2342 169.042 77.0129 167.76 76.9752C166.509 76.9482 165.259 77.0307 164.022 77.2216C162.953 77.3872 161.914 77.7139 160.943 78.1907C160.082 78.6091 159.341 79.236 158.786 80.0139C158.215 80.8328 157.916 81.8092 157.93 82.8063C157.881 83.8267 158.151 84.8368 158.704 85.6971C159.359 86.6257 160.199 87.4087 161.173 87.9967C162.478 88.8179 163.863 89.5058 165.307 90.0498C166.953 90.6959 168.874 91.4023 171.07 92.1688C175.285 93.6471 179.166 95.1856 182.712 96.7843C186.003 98.2242 189.082 100.103 191.867 102.369C194.369 104.428 196.392 107.007 197.795 109.925C199.264 113.233 199.93 116.84 199.738 120.453C199.698 123.958 198.942 127.418 197.515 130.621C196.143 133.691 194.205 136.477 191.802 138.833C189.303 141.232 186.42 143.198 183.272 144.648C179.877 146.216 176.271 147.284 172.568 147.818L172.37 156.277C172.37 158.002 171.333 158.856 169.423 158.807L158.111 158.561C157.754 158.602 157.392 158.561 157.053 158.441C156.715 158.321 156.409 158.125 156.159 157.867C155.909 157.61 155.721 157.298 155.611 156.957C155.501 156.616 155.473 156.254 155.526 155.9L155.74 147.26C152.584 146.513 149.523 145.411 146.617 143.975C143.723 142.524 140.967 140.814 138.384 138.866C136.959 137.826 135.626 136.667 134.399 135.401C134.074 135.062 133.692 134.702 133.289 134.322C132.179 133.276 130.913 132.084 130.271 130.791C129.838 129.921 129.832 129.211 130.37 128.377C130.617 127.995 130.94 127.669 131.319 127.418L141.94 117.891C142.53 117.417 143.245 117.126 143.999 117.053C144.405 117.073 144.798 117.204 145.134 117.431C145.635 117.759 146.109 118.127 146.551 118.532C147.226 119.09 148.082 119.862 149.119 120.798C150.245 121.82 151.44 122.763 152.693 123.623C154.567 124.94 156.583 126.042 158.704 126.909C160.704 127.715 162.835 128.149 164.993 128.19C166.736 128.273 168.482 128.079 170.164 127.615C171.375 127.287 172.499 126.698 173.458 125.89C174.249 125.195 174.854 124.315 175.219 123.328C175.589 122.328 175.79 121.273 175.812 120.207C175.822 118.979 175.342 117.797 174.479 116.922C173.485 115.878 172.341 114.987 171.086 114.277C169.735 113.496 168.326 112.82 166.871 112.257C165.405 111.699 164.137 111.222 163.05 110.844C158.745 109.283 154.568 107.394 150.553 105.194C147.296 103.436 144.307 101.224 141.677 98.624C139.422 96.3707 137.642 93.6899 136.441 90.7397C135.257 87.7236 134.696 84.4999 134.794 81.2623C134.839 78.3886 135.437 75.5503 136.555 72.9017C137.65 70.3805 139.215 68.0897 141.167 66.1509C143.256 64.1071 145.685 62.4399 148.346 61.2232C151.351 59.8191 154.538 58.8405 157.814 58.3159L158.012 50.1031C158.019 49.4299 158.27 48.7819 158.72 48.2799C158.979 48.0172 159.295 47.8159 159.642 47.6908C159.99 47.5657 160.361 47.5201 160.729 47.5572L172.024 47.8036C172.714 47.8526 173.371 48.1169 173.902 48.5591C174.207 48.7723 174.455 49.0582 174.621 49.391C174.788 49.7237 174.869 50.0928 174.857 50.4646L174.676 58.3981C176.915 58.8351 179.118 59.4447 181.263 60.2213C183.456 61.0321 185.577 62.0266 187.603 63.1943C188.953 64.0156 190.221 64.8368 191.423 65.7238C192.518 66.5138 193.573 67.358 194.584 68.2533C195.376 68.9433 196.093 69.714 196.724 70.5529C197.12 71.0208 197.377 71.5897 197.466 72.1954Z" fill="#B7CA4E"/>
<path d="M66.5475 161.758C42.7112 179.314 23.9985 203.009 12.5464 230.428C-1.33849 263.67 -3.77448 300.527 5.61621 335.282C15.0069 370.038 35.6994 400.749 64.4846 422.653C93.2697 444.557 128.539 456.43 164.822 456.43C201.104 456.43 236.373 444.557 265.159 422.653C293.944 400.749 314.636 370.038 324.027 335.282C333.418 300.527 330.982 263.67 317.097 230.428C305.805 203.393 287.454 179.978 264.094 162.499L226.923 216.655C239.733 226.905 249.826 240.219 256.187 255.448C264.518 275.393 265.979 297.507 260.345 318.361C254.71 339.214 242.295 357.641 225.024 370.783C207.753 383.925 186.591 391.049 164.822 391.049C143.052 391.049 121.89 383.925 104.619 370.783C87.3483 357.64 74.9327 339.214 69.2983 318.361C63.6639 297.507 65.1255 275.393 73.4564 255.448C79.9476 239.907 90.3266 226.359 103.512 216.027L66.5475 161.758Z" fill="#B7CA4E"/>
</g>
</svg>
