<svg width="235" height="235" viewBox="0 0 235 235" fill="none" xmlns="http://www.w3.org/2000/svg">
<circle r="3.76052" transform="matrix(4.37114e-08 1 1 -4.37114e-08 3.76052 3.88674)" fill="#9BD7B3"/>
<circle r="3.76052" transform="matrix(4.37114e-08 1 1 -4.37114e-08 3.76052 49.2494)" fill="#9BD7B3"/>
<circle r="3.76052" transform="matrix(4.37114e-08 1 1 -4.37114e-08 49.1228 3.88674)" fill="#9BD7B3"/>
<circle r="3.76052" transform="matrix(4.37114e-08 1 1 -4.37114e-08 49.1228 49.2494)" fill="#9BD7B3"/>
<circle r="3.76052" transform="matrix(4.37114e-08 1 1 -4.37114e-08 94.4851 3.88674)" fill="#9BD7B3"/>
<circle r="3.76052" transform="matrix(4.37114e-08 1 1 -4.37114e-08 94.4851 49.2494)" fill="#9BD7B3"/>
<circle r="3.76052" transform="matrix(4.37114e-08 1 1 -4.37114e-08 94.4851 94.6116)" fill="#9BD7B3"/>
<circle r="3.76052" transform="matrix(4.37114e-08 1 1 -4.37114e-08 49.1267 94.6116)" fill="#9BD7B3"/>
<circle r="3.76052" transform="matrix(4.37114e-08 1 1 -4.37114e-08 139.847 3.88674)" fill="#9BD7B3"/>
<circle r="3.76052" transform="matrix(4.37114e-08 1 1 -4.37114e-08 139.847 49.2494)" fill="#9BD7B3"/>
<circle r="3.76052" transform="matrix(4.37114e-08 1 1 -4.37114e-08 139.847 94.6116)" fill="#9BD7B3"/>
<circle r="3.76052" transform="matrix(4.37114e-08 1 1 -4.37114e-08 139.847 139.974)" fill="#9BD7B3"/>
<circle r="3.76052" transform="matrix(4.37114e-08 1 1 -4.37114e-08 94.2527 139.974)" fill="#9BD7B3"/>
<circle r="3.76052" transform="matrix(4.37114e-08 1 1 -4.37114e-08 139.847 185.336)" fill="#9BD7B3"/>
<circle r="3.76052" transform="matrix(4.37114e-08 1 1 -4.37114e-08 94.2527 185.336)" fill="#9BD7B3"/>
<circle r="3.76052" transform="matrix(4.37114e-08 1 1 -4.37114e-08 139.847 230.458)" fill="#9BD7B3"/>
<circle r="3.76052" transform="matrix(4.37114e-08 1 1 -4.37114e-08 94.2527 230.458)" fill="#9BD7B3"/>
<circle r="3.76052" transform="matrix(4.37114e-08 1 1 -4.37114e-08 185.21 3.88674)" fill="#9BD7B3"/>
<circle r="3.76052" transform="matrix(4.37114e-08 1 1 -4.37114e-08 185.21 49.2494)" fill="#9BD7B3"/>
<circle r="3.76052" transform="matrix(4.37114e-08 1 1 -4.37114e-08 185.21 94.6116)" fill="#9BD7B3"/>
<circle r="3.76052" transform="matrix(4.37114e-08 1 1 -4.37114e-08 185.21 139.974)" fill="#9BD7B3"/>
<circle r="3.76052" transform="matrix(4.37114e-08 1 1 -4.37114e-08 185.21 185.336)" fill="#9BD7B3"/>
<circle r="3.76052" transform="matrix(4.37114e-08 1 1 -4.37114e-08 185.21 230.458)" fill="#9BD7B3"/>
<circle r="3.76052" transform="matrix(4.37114e-08 1 1 -4.37114e-08 230.571 3.88686)" fill="#9BD7B3"/>
<circle r="3.76052" transform="matrix(4.37114e-08 1 1 -4.37114e-08 230.571 49.2494)" fill="#9BD7B3"/>
<circle r="3.76052" transform="matrix(4.37114e-08 1 1 -4.37114e-08 230.571 94.6116)" fill="#9BD7B3"/>
<circle r="3.76052" transform="matrix(4.37114e-08 1 1 -4.37114e-08 230.571 139.974)" fill="#9BD7B3"/>
<circle r="3.76052" transform="matrix(4.37114e-08 1 1 -4.37114e-08 230.571 185.336)" fill="#9BD7B3"/>
<circle r="3.76052" transform="matrix(4.37114e-08 1 1 -4.37114e-08 230.571 230.458)" fill="#9BD7B3"/>
</svg>
