<?xml version="1.0" encoding="utf-8"?>
<!-- Generator: Adobe Illustrator 16.0.0, SVG Export Plug-In . SVG Version: 6.00 Build 0)  -->
<!DOCTYPE svg PUBLIC "-//W3C//DTD SVG 1.1//EN" "http://www.w3.org/Graphics/SVG/1.1/DTD/svg11.dtd">
<svg version="1.1" id="Capa_1" xmlns="http://www.w3.org/2000/svg" xmlns:xlink="http://www.w3.org/1999/xlink" x="0px" y="0px"
	 width="174px" height="373px" viewBox="0 0 174 373" enable-background="new 0 0 174 373" xml:space="preserve">
<g id="Capa_4">
	<rect fill="#CEE6D7" width="174" height="372.665"/>
</g>
<g id="Capa_5">
	<g>
		<path fill="#9ED0B2" d="M58.5,187.57c0-15.464,12.536-28,28-28s28,12.536,28,28c0,15.464-12.536,28-28,28
			S58.5,203.034,58.5,187.57z"/>
		<path fill="#465E63" d="M95.834,175.569H77.167c-1.48,0-2.667,1.2-2.667,2.667v18.667c0,1.468,1.187,2.668,2.667,2.668h18.667
			c1.466,0,2.666-1.2,2.666-2.668v-18.667C98.5,176.769,97.313,175.569,95.834,175.569z M95.834,196.902H77.167v-16h18.667V196.902z
			 M86.5,185.569c2.453,0,4.641,1.28,5.787,3.333c-1.146,2.054-3.334,3.334-5.787,3.334s-4.64-1.28-5.787-3.334
			C81.86,186.849,84.047,185.569,86.5,185.569z M86.5,183.569c-3.64,0-6.747,2.213-8,5.333c1.253,3.119,4.36,5.334,8,5.334
			c3.641,0,6.746-2.215,8-5.334C93.246,185.782,90.141,183.569,86.5,183.569z M86.5,190.902c-1.107,0-2-0.894-2-2s0.893-2,2-2
			c1.107,0,2,0.894,2,2C88.5,190.01,87.607,190.902,86.5,190.902z"/>
	</g>
</g>
</svg>
