<svg width="56" height="56" viewBox="0 0 56 56" fill="none" xmlns="http://www.w3.org/2000/svg">
<path d="M0 28C0 12.536 12.536 0 28 0C43.464 0 56 12.536 56 28C56 43.464 43.464 56 28 56C12.536 56 0 43.464 0 28Z" fill="#9BD7B3"/>
<path d="M37.3333 15.999H18.6667C17.1867 15.999 16 17.199 16 18.6657V37.3324C16 38.799 17.1867 39.999 18.6667 39.999H37.3333C38.8 39.999 40 38.799 40 37.3324V18.6657C40 17.199 38.8133 15.999 37.3333 15.999ZM37.3333 37.3324H18.6667V21.3324H37.3333V37.3324ZM28 25.999C30.4533 25.999 32.64 27.279 33.7867 29.3324C32.64 31.3857 30.4533 32.6657 28 32.6657C25.5467 32.6657 23.36 31.3857 22.2133 29.3324C23.36 27.279 25.5467 25.999 28 25.999ZM28 23.999C24.36 23.999 21.2533 26.2124 20 29.3324C21.2533 32.4524 24.36 34.6657 28 34.6657C31.64 34.6657 34.7467 32.4524 36 29.3324C34.7467 26.2124 31.64 23.999 28 23.999ZM28 31.3324C26.8933 31.3324 26 30.439 26 29.3324C26 28.2257 26.8933 27.3324 28 27.3324C29.1067 27.3324 30 28.2257 30 29.3324C30 30.439 29.1067 31.3324 28 31.3324Z" fill="#455D62"/>
</svg>
