<svg width="57" height="56" viewBox="0 0 57 56" fill="none" xmlns="http://www.w3.org/2000/svg">
<path d="M0.5 28C0.5 43.464 13.036 56 28.5 56C43.964 56 56.5 43.464 56.5 28C56.5 12.536 43.964 0 28.5 0C13.036 0 0.5 12.536 0.5 28Z" fill="#E3B863"/>
<path d="M19.1667 24H16.5V18.6667C16.5 17.2 17.7 16 19.1667 16H24.5V18.6667H19.1667V24ZM19.1667 37.3333H24.5V40H19.1667C17.7 40 16.5 38.8 16.5 37.3333V32H19.1667V37.3333ZM28.5 33.3333C25.5533 33.3333 23.1667 30.9467 23.1667 28C23.1667 25.0533 25.5533 22.6667 28.5 22.6667C31.4467 22.6667 33.8333 25.0533 33.8333 28C33.8333 30.9467 31.4467 33.3333 28.5 33.3333ZM28.5 25.3333C27.0333 25.3333 25.8333 26.5333 25.8333 28C25.8333 29.4667 27.0333 30.6667 28.5 30.6667C29.9667 30.6667 31.1667 29.4667 31.1667 28C31.1667 26.5333 29.9667 25.3333 28.5 25.3333ZM37.8333 40H32.5V37.3333H37.8333V32H40.5V37.3333C40.5 38.8 39.3 40 37.8333 40ZM37.8333 18.6667H32.5V16H37.8333C39.3 16 40.5 17.2 40.5 18.6667V24H37.8333V18.6667Z" fill="#344549"/>
</svg>
