<svg width="311" height="262" viewBox="0 0 311 262" fill="none" xmlns="http://www.w3.org/2000/svg">
<circle cx="54.4397" cy="4.42049" r="4.1877" fill="#9BD7B3"/>
<circle cx="4.1877" cy="4.42049" r="4.1877" fill="#9BD7B3"/>
<circle cx="104.955" cy="4.18758" r="4.1877" fill="#9BD7B3"/>
<circle cx="54.4397" cy="54.9359" r="4.1877" fill="#9BD7B3"/>
<circle cx="4.1877" cy="54.9359" r="4.1877" fill="#9BD7B3"/>
<circle cx="104.955" cy="54.9359" r="4.1877" fill="#9BD7B3"/>
<circle cx="54.4397" cy="105.451" r="4.1877" fill="#9BD7B3"/>
<circle cx="4.1877" cy="105.451" r="4.1877" fill="#9BD7B3"/>
<circle cx="104.955" cy="105.451" r="4.1877" fill="#9BD7B3"/>
<circle cx="155.471" cy="105.451" r="4.1877" fill="#9BD7B3"/>
<circle cx="155.471" cy="54.9406" r="4.1877" fill="#9BD7B3"/>
<circle cx="205.565" cy="54.9406" r="4.1877" fill="#9BD7B3"/>
<circle cx="256.565" cy="54.9406" r="4.1877" fill="#9BD7B3"/>
<circle cx="306.565" cy="54.9406" r="4.1877" fill="#9BD7B3"/>
<circle cx="155.471" cy="4.1877" r="4.1877" fill="#9BD7B3"/>
<circle cx="205.565" cy="4.1877" r="4.1877" fill="#9BD7B3"/>
<circle cx="256.565" cy="4.1877" r="4.1877" fill="#9BD7B3"/>
<circle cx="306.565" cy="4.1877" r="4.1877" fill="#9BD7B3"/>
<circle cx="54.4397" cy="155.966" r="4.1877" fill="#9BD7B3"/>
<circle cx="4.1877" cy="155.966" r="4.1877" fill="#9BD7B3"/>
<circle cx="104.955" cy="155.966" r="4.1877" fill="#9BD7B3"/>
<circle cx="155.471" cy="155.966" r="4.1877" fill="#9BD7B3"/>
<circle cx="205.987" cy="155.966" r="4.1877" fill="#9BD7B3"/>
<circle cx="205.987" cy="105.193" r="4.1877" fill="#9BD7B3"/>
<circle cx="256.502" cy="155.966" r="4.1877" fill="#9BD7B3"/>
<circle cx="256.502" cy="105.193" r="4.1877" fill="#9BD7B3"/>
<circle cx="306.749" cy="155.966" r="4.1877" fill="#9BD7B3"/>
<circle cx="306.565" cy="105.193" r="4.1877" fill="#9BD7B3"/>
<circle cx="54.4397" cy="206.481" r="4.1877" fill="#9BD7B3"/>
<circle cx="4.1877" cy="206.481" r="4.1877" fill="#9BD7B3"/>
<circle cx="104.955" cy="206.481" r="4.1877" fill="#9BD7B3"/>
<circle cx="155.471" cy="206.481" r="4.1877" fill="#9BD7B3"/>
<circle cx="205.987" cy="206.481" r="4.1877" fill="#9BD7B3"/>
<circle cx="256.502" cy="206.481" r="4.1877" fill="#9BD7B3"/>
<circle cx="306.749" cy="206.481" r="4.1877" fill="#9BD7B3"/>
<circle cx="54.4406" cy="256.997" r="4.1877" fill="#9BD7B3"/>
<circle cx="4.1877" cy="256.997" r="4.1877" fill="#9BD7B3"/>
<circle cx="104.956" cy="256.997" r="4.1877" fill="#9BD7B3"/>
<circle cx="155.471" cy="256.997" r="4.1877" fill="#9BD7B3"/>
<circle cx="205.987" cy="256.997" r="4.1877" fill="#9BD7B3"/>
<circle cx="256.502" cy="256.997" r="4.1877" fill="#9BD7B3"/>
<circle cx="306.749" cy="256.997" r="4.1877" fill="#9BD7B3"/>
</svg>
