<svg width="56" height="56" viewBox="0 0 56 56" fill="none" xmlns="http://www.w3.org/2000/svg">
<path d="M0 28C0 43.464 12.536 56 28 56C43.464 56 56 43.464 56 28C56 12.536 43.464 0 28 0C12.536 0 0 12.536 0 28Z" fill="#F59E96"/>
<path d="M29.3337 41.2666V28.6667C29.3337 28.6667 33.5354 26.442 40.1603 22.5733C40.907 24.2266 41.3337 26.0666 41.3337 27.9999C41.3337 34.9066 36.067 40.5999 29.3337 41.2666ZM28.0003 18.6666C25.525 18.6666 23.151 19.6499 21.4007 21.4003C19.6503 23.1506 18.667 25.5246 18.667 27.9999C18.667 32.7066 22.147 36.5733 26.667 37.2266V41.2666C19.9203 40.5999 14.667 34.9199 14.667 27.9999C14.667 24.4637 16.0718 21.0723 18.5722 18.5718C19.8103 17.3337 21.2802 16.3516 22.8979 15.6815C24.5156 15.0115 26.2494 14.6666 28.0003 14.6666C32.4003 14.6666 36.307 16.8133 38.7337 20.1199L35.267 22.1599C33.5603 19.9999 30.947 18.6666 28.0003 18.6666Z" fill="#344549"/>
</svg>
