<?xml version="1.0" encoding="utf-8"?>
<!-- Generator: Adobe Illustrator 16.0.0, SVG Export Plug-In . SVG Version: 6.00 Build 0)  -->
<!DOCTYPE svg PUBLIC "-//W3C//DTD SVG 1.1//EN" "http://www.w3.org/Graphics/SVG/1.1/DTD/svg11.dtd">
<svg version="1.1" id="Capa_1" xmlns="http://www.w3.org/2000/svg" xmlns:xlink="http://www.w3.org/1999/xlink" x="0px" y="0px"
	 width="174px" height="373px" viewBox="0 0 174 373" enable-background="new 0 0 174 373" xml:space="preserve">
<g id="Capa_8">
	<rect fill="#FCDFDC" width="174" height="373"/>
</g>
<g id="Capa_9">
	<g>
		<path fill="#F49E97" d="M59,186.5c0,15.463,12.536,28,28,28s28-12.537,28-28c0-15.464-12.536-28-28-28S59,171.036,59,186.5z"/>
		<path fill="#344549" d="M88.334,199.766v-12.6c0,0,4.201-2.225,10.826-6.093c0.747,1.653,1.174,3.493,1.174,5.427
			C100.334,193.406,95.066,199.1,88.334,199.766z M87,177.166c-2.476,0-4.85,0.983-6.6,2.734c-1.75,1.75-2.734,4.124-2.734,6.6
			c0,4.708,3.48,8.573,8,9.227v4.039c-6.747-0.666-12-6.346-12-13.266c0-3.536,1.405-6.928,3.905-9.428
			c1.238-1.238,2.708-2.22,4.326-2.89s3.352-1.015,5.103-1.015c4.4,0,8.307,2.147,10.734,5.454l-3.467,2.04
			C92.561,178.5,89.947,177.166,87,177.166z"/>
	</g>
</g>
</svg>
