<?xml version="1.0" encoding="utf-8"?>
<!-- Generator: Adobe Illustrator 16.0.0, SVG Export Plug-In . SVG Version: 6.00 Build 0)  -->
<!DOCTYPE svg PUBLIC "-//W3C//DTD SVG 1.1//EN" "http://www.w3.org/Graphics/SVG/1.1/DTD/svg11.dtd">
<svg version="1.1" id="Capa_1" xmlns="http://www.w3.org/2000/svg" xmlns:xlink="http://www.w3.org/1999/xlink" x="0px" y="0px"
	 width="174px" height="373px" viewBox="0 0 174 373" enable-background="new 0 0 174 373" xml:space="preserve">
<g id="Capa_6">
	<rect x="1.21" y="-0.403" fill="#FFEDC8" width="172.79" height="373.403"/>
</g>
<g id="Capa_7">
	<g>
		<path fill="#E3B863" d="M58.399,187.148c0,15.465,12.536,28,28,28c15.464,0,28-12.535,28-28c0-15.463-12.535-28-28-28
			C70.935,159.149,58.399,171.686,58.399,187.148z"/>
		<path fill="#344549" d="M77.065,183.149h-2.667v-5.333c0-1.466,1.2-2.667,2.667-2.667h5.333v2.667h-5.333V183.149z
			 M77.065,196.482h5.333v2.666h-5.333c-1.466,0-2.667-1.199-2.667-2.666v-5.334h2.667V196.482z M86.399,192.482
			c-2.947,0-5.333-2.387-5.333-5.334c0-2.946,2.387-5.333,5.333-5.333c2.949,0,5.333,2.387,5.333,5.333
			C91.732,190.098,89.348,192.482,86.399,192.482z M86.399,184.483c-1.467,0-2.667,1.2-2.667,2.667c0,1.467,1.2,2.666,2.667,2.666
			c1.467,0,2.667-1.199,2.667-2.666C89.066,185.683,87.866,184.483,86.399,184.483z M95.732,199.148h-5.334v-2.666h5.334v-5.334
			h2.666v5.334C98.398,197.949,97.199,199.148,95.732,199.148z M95.732,177.816h-5.334v-2.667h5.334c1.467,0,2.666,1.2,2.666,2.667
			v5.333h-2.666V177.816z"/>
	</g>
</g>
</svg>
