<svg width="56" height="56" viewBox="0 0 56 56" fill="none" xmlns="http://www.w3.org/2000/svg">
<rect width="56" height="56" rx="28" transform="matrix(-1 0 0 1 56 0)" fill="#8C50EF"/>
<g clip-path="url(#clip0_2225_2670)">
<path d="M43.962 26.9202V27.9689C43.9476 27.9837 43.924 27.9968 43.9207 28.0143C43.7175 29.0988 43.1021 29.9037 42.3046 30.5862C41.1791 31.5475 39.8741 32.1671 38.5109 32.6652C38.2849 32.7474 38.2099 32.8444 38.2107 33.0952C38.2208 35.5369 38.2183 37.9794 38.2166 40.4211C38.2166 41.8595 37.3626 43.0061 36.0163 43.3461C34.3714 43.7495 32.6974 44.0125 31.0111 44.1326C30.5306 44.1701 30.0518 44.22 29.5721 44.2619H26.0414C25.9618 44.2384 25.8807 44.2211 25.7986 44.2103C23.7947 44.1116 21.8018 43.8457 19.8391 43.4151C18.3301 43.0848 17.3943 41.9487 17.3943 40.3564C17.3943 37.9357 17.3943 35.515 17.3994 33.0943C17.3994 32.8444 17.3294 32.7369 17.0967 32.6635C16.7265 32.5391 16.3634 32.3929 16.0092 32.2256C14.7851 31.6794 13.6242 31.0249 12.7045 29.9989C11.8016 28.9904 11.3902 27.822 11.7965 26.457C12.0975 25.4494 12.7711 24.7162 13.5669 24.0931C14.8146 23.1126 16.2351 22.4982 17.7147 22.0184C18.3714 21.8061 19.0391 21.6287 19.7 21.4364C19.7031 21.3989 19.7031 21.3612 19.7 21.3237C19.3122 19.1922 19.1411 17.0494 19.4218 14.8883C19.555 13.8579 19.7826 12.853 20.3407 11.9651C21.1973 10.6 22.6355 10.3335 23.8234 11.39C24.3361 11.8562 24.7785 12.3994 25.136 13.0015C26.2176 14.8009 26.7479 16.8152 27.1087 18.8829C27.2056 19.4378 27.2773 19.998 27.3616 20.5599H28.2594C28.2797 20.4612 28.2982 20.3773 28.3134 20.2925C28.482 19.2971 28.6118 18.2913 28.8386 17.3099C29.2424 15.5551 29.83 13.8693 30.8619 12.3898C31.2295 11.8654 31.6569 11.4014 32.2108 11.0789C33.1381 10.5371 34.1742 10.6568 34.8824 11.4731C35.2253 11.8694 35.4976 12.3256 35.6867 12.8206C36.4454 14.8551 36.4159 16.9787 36.2262 19.1066C36.1571 19.8835 36.0281 20.6552 35.9244 21.4434C35.9691 21.4592 36.0163 21.4775 36.0652 21.4932C37.0971 21.8201 38.1382 22.1181 39.1575 22.4825C40.1302 22.8363 41.0486 23.334 41.8839 23.9603C42.8896 24.7083 43.65 25.6434 43.962 26.9202ZM21.4418 27.5494C25.7126 28.723 29.9287 28.7257 34.1717 27.5494C33.9869 26.8205 33.6755 26.1325 33.2528 25.5193C32.9738 25.1199 32.9282 24.7328 33.107 24.2661C34.0394 21.8384 34.4499 19.3067 34.4221 16.7016C34.4111 15.6014 34.3083 14.502 33.891 13.4682C33.5293 12.5716 33.23 12.5235 32.6264 13.2628C32.0489 13.9689 31.6653 14.793 31.3391 15.646C30.5922 17.5956 30.2431 19.6336 30.0838 21.7161C30.0341 22.3829 29.54 22.7604 28.8985 22.6433C28.1735 22.5102 27.4316 22.5102 26.7066 22.6433C26.0667 22.7595 25.5836 22.3811 25.5322 21.7021C25.3838 19.7524 25.0677 17.8386 24.4076 15.999C24.0324 14.9547 23.5983 13.9383 22.8555 13.1081C22.3767 12.5733 22.1314 12.6161 21.8127 13.2698C21.4502 14.0109 21.3161 14.8201 21.2538 15.6293C21.0319 18.5492 21.4555 21.483 22.4922 24.2076C22.6802 24.7074 22.6423 25.1173 22.3396 25.549C21.9214 26.1512 21.6168 26.8299 21.4418 27.5494ZM36.002 26.7358C36.0568 26.7069 36.1225 26.6729 36.1866 26.637C36.7396 26.3285 37.312 26.4666 37.5768 26.9735C37.8415 27.4803 37.6678 28.044 37.1198 28.3499C36.6421 28.6225 36.1485 28.8642 35.642 29.0735C33.6853 29.8556 31.6409 30.2095 29.5552 30.3319C26.6046 30.5067 23.6927 30.3188 20.8626 29.3881C20.0288 29.1145 19.2296 28.7108 18.4405 28.3123C18.3245 28.2573 18.2209 28.1778 18.1364 28.0787C18.0518 27.9797 17.9883 27.8634 17.9498 27.7373C17.9114 27.6112 17.8989 27.4781 17.9131 27.3467C17.9274 27.2153 17.968 27.0885 18.0325 26.9744C18.2913 26.4841 18.8578 26.3259 19.3687 26.6021C19.4581 26.651 19.5474 26.6982 19.6107 26.7314C19.9327 26.0585 20.2438 25.4092 20.5523 24.759C20.5776 24.7136 20.5865 24.6603 20.5776 24.6087C20.447 24.1997 20.3096 23.7933 20.1688 23.3704C18.4093 23.8012 16.7123 24.3151 15.1999 25.3236C14.734 25.6382 14.3122 26.0178 13.9463 26.4518C13.3991 27.0967 13.4109 27.7626 13.9252 28.4381C14.1484 28.727 14.4045 28.9867 14.6881 29.2115C15.6905 30.0147 16.8455 30.5075 18.0367 30.9113C20.6712 31.8027 23.3883 32.1819 26.1476 32.3034C29.4928 32.4502 32.8026 32.2029 36.0601 31.3683C37.5616 30.9838 39.0344 30.4944 40.3428 29.6127C40.8604 29.2637 41.3269 28.8393 41.7279 28.3525C42.2118 27.7626 42.1764 27.15 41.7279 26.5278C41.5262 26.2488 41.2917 25.9969 41.0299 25.778C39.8808 24.8167 38.5311 24.2792 37.1392 23.8388C36.582 23.664 36.0154 23.5181 35.4447 23.3564C35.3039 23.7855 35.1758 24.1639 35.0569 24.5458C35.0329 24.6138 35.0329 24.6884 35.0569 24.7564C35.3646 25.4083 35.6774 26.0576 36.002 26.7358ZM19.3072 37.282C19.2986 37.3073 19.2924 37.3333 19.2886 37.3598C19.2886 38.3508 19.2836 39.3427 19.2886 40.3311C19.2886 40.9673 19.5643 41.3151 20.1671 41.4558C22.1977 41.9184 24.2652 42.1854 26.3432 42.2537C29.411 42.3751 32.4485 42.1488 35.4481 41.4558C36.05 41.316 36.3248 40.9664 36.3274 40.3311C36.3274 39.3943 36.3274 38.4571 36.3274 37.5197C36.3274 37.4393 36.3147 37.3589 36.3088 37.282C30.7102 38.5748 24.9058 38.5748 19.3072 37.282ZM36.3173 33.3617C30.7127 34.6494 24.9041 34.6494 19.2996 33.3617V35.2467C24.9862 36.624 30.6588 36.624 36.3173 35.2467V33.3617Z" fill="white"/>
<path d="M43.9617 17.8903C43.7231 18.4488 43.3083 18.6725 42.7275 18.6131C42.5007 18.5895 42.2705 18.6087 42.0041 18.6087C42.0041 18.946 42.0041 19.258 42.0041 19.57C41.9965 20.1503 41.5986 20.5706 41.0608 20.5715C40.5229 20.5724 40.1199 20.1538 40.114 19.5735C40.114 19.2694 40.114 18.9617 40.114 18.6122C39.8139 18.6122 39.5239 18.6122 39.2364 18.6122C38.6286 18.6122 38.2155 18.205 38.2248 17.6203C38.2298 17.0549 38.6463 16.659 39.2364 16.652C39.518 16.652 39.7996 16.652 40.1199 16.652C40.1199 16.3165 40.1199 16.0045 40.1199 15.6907C40.1267 15.1096 40.5254 14.6875 41.0625 14.6875C41.5995 14.6875 42.0008 15.1078 42.0092 15.6872C42.0134 15.9914 42.0092 16.299 42.0092 16.6485C42.2621 16.6485 42.4973 16.6678 42.7317 16.6485C43.3109 16.5917 43.7273 16.8137 43.9667 17.3704L43.9617 17.8903Z" fill="white"/>
<path d="M15.4343 14.6823C15.4343 15.0424 15.4393 15.3579 15.4343 15.6725C15.4347 15.801 15.4106 15.9283 15.3635 16.0472C15.3164 16.1662 15.2472 16.2743 15.1598 16.3654C14.9833 16.5496 14.7434 16.6535 14.493 16.6543C14.369 16.6547 14.2462 16.6298 14.1315 16.581C14.0168 16.5321 13.9125 16.4604 13.8245 16.3698C13.6469 16.1868 13.5466 15.9382 13.5459 15.6786C13.5391 15.3631 13.5459 15.0476 13.5459 14.6823C13.2432 14.6823 12.9557 14.6823 12.664 14.6823C12.0739 14.6823 11.6574 14.2821 11.6524 13.7158C11.6473 13.1338 12.0638 12.7265 12.6716 12.7222C12.9532 12.7222 13.2339 12.7222 13.545 12.7222C13.545 12.377 13.545 12.0632 13.545 11.7495C13.5445 11.4899 13.6434 11.2407 13.8201 11.0568C13.9968 10.8728 14.2367 10.7691 14.4871 10.7686C14.7375 10.768 14.9779 10.8705 15.1554 11.0537C15.3329 11.2368 15.4329 11.4856 15.4334 11.7451C15.4385 12.0589 15.4334 12.3726 15.4334 12.7222C15.7631 12.7222 16.0649 12.7178 16.3667 12.7222C16.9248 12.7309 17.3294 13.1495 17.3269 13.7097C17.3244 14.2698 16.9197 14.671 16.3532 14.6806C16.0615 14.6849 15.7681 14.6823 15.4343 14.6823Z" fill="white"/>
<path d="M40.1098 11.7458C40.1088 11.9401 40.052 12.1297 39.9468 12.2905C39.8415 12.4513 39.6925 12.576 39.5187 12.6487C39.3449 12.7215 39.1542 12.7391 38.9707 12.6992C38.7873 12.6593 38.6194 12.5637 38.4885 12.4247C38.3575 12.2856 38.2695 12.1093 38.2354 11.9183C38.2014 11.7272 38.223 11.5299 38.2973 11.3516C38.3717 11.1732 38.4956 11.0218 38.6532 10.9167C38.8108 10.8115 38.9951 10.7573 39.1825 10.7609C39.3059 10.7619 39.4279 10.7883 39.5414 10.8384C39.655 10.8886 39.7578 10.9615 39.8441 11.0531C39.9303 11.1447 39.9981 11.253 40.0437 11.3719C40.0894 11.4908 40.1118 11.6179 40.1098 11.7458Z" fill="white"/>
<path d="M13.5405 21.5523C13.541 21.7468 13.4856 21.937 13.3815 22.0987C13.2773 22.2605 13.1291 22.3864 12.9557 22.4605C12.7822 22.5346 12.5915 22.5536 12.4076 22.5149C12.2238 22.4763 12.0552 22.3818 11.9233 22.2435C11.7914 22.1052 11.7022 21.9293 11.6671 21.7383C11.632 21.5473 11.6525 21.3498 11.726 21.1709C11.7995 20.992 11.9228 20.8398 12.08 20.7337C12.2372 20.6277 12.4214 20.5725 12.6089 20.5753C12.7324 20.5747 12.8546 20.5996 12.9686 20.6487C13.0826 20.6977 13.1861 20.7698 13.2728 20.8608C13.3596 20.9518 13.428 21.0599 13.4739 21.1786C13.5199 21.2973 13.5425 21.4244 13.5405 21.5523Z" fill="white"/>
</g>
<defs>
<clipPath id="clip0_2225_2670">
<rect width="32.3206" height="33.5176" fill="white" transform="translate(11.6406 10.7422)"/>
</clipPath>
</defs>
</svg>
