<?xml version="1.0" encoding="utf-8"?>
<!-- Generator: Adobe Illustrator 16.0.0, SVG Export Plug-In . SVG Version: 6.00 Build 0)  -->
<!DOCTYPE svg PUBLIC "-//W3C//DTD SVG 1.1//EN" "http://www.w3.org/Graphics/SVG/1.1/DTD/svg11.dtd">
<svg version="1.1" id="Capa_1" xmlns="http://www.w3.org/2000/svg" xmlns:xlink="http://www.w3.org/1999/xlink" x="0px" y="0px"
	 width="174px" height="373px" viewBox="0 0 174 373" enable-background="new 0 0 174 373" xml:space="preserve">
<g id="Capa_10">
	<rect fill="#E6DBED" width="174" height="373"/>
</g>
<g id="Capa_11">
	<g>
		<path fill="#66539F" d="M86.5,159.25L86.5,159.25c-15.464,0-28,12.536-28,28l0,0c0,15.464,12.536,28,28,28l0,0
			c15.464,0,28-12.536,28-28l0,0C114.5,171.786,101.964,159.25,86.5,159.25z"/>
		<g>
			<g>
				<defs>
					<rect id="SVGID_1_" x="70.141" y="169.992" width="32.32" height="33.518"/>
				</defs>
				<clipPath id="SVGID_2_">
					<use xlink:href="#SVGID_1_"  overflow="visible"/>
				</clipPath>
				<g clip-path="url(#SVGID_2_)">
					<path fill="#FFFFFF" d="M102.462,186.17v1.048c-0.015,0.017-0.038,0.027-0.041,0.046c-0.204,1.084-0.819,1.891-1.616,2.571
						c-1.125,0.961-2.431,1.581-3.793,2.079c-0.227,0.083-0.302,0.179-0.301,0.432c0.01,2.44,0.008,4.883,0.006,7.324
						c0,1.438-0.854,2.585-2.201,2.926c-1.645,0.403-3.317,0.666-5.004,0.786c-0.479,0.037-0.96,0.089-1.438,0.129h-3.531
						c-0.08-0.022-0.161-0.04-0.243-0.051c-2.004-0.101-3.997-0.364-5.96-0.796c-1.509-0.33-2.444-1.466-2.444-3.059
						c0-2.422,0-4.842,0.005-7.264c0-0.25-0.07-0.357-0.303-0.43c-0.37-0.125-0.733-0.271-1.087-0.438
						c-1.224-0.547-2.385-1.201-3.305-2.228c-0.903-1.009-1.314-2.177-0.908-3.542c0.301-1.008,0.975-1.741,1.771-2.364
						c1.248-0.98,2.668-1.595,4.148-2.075c0.657-0.212,1.324-0.39,1.985-0.582c0.003-0.038,0.003-0.075,0-0.113
						c-0.388-2.131-0.559-4.274-0.278-6.436c0.133-1.03,0.361-2.035,0.919-2.923c0.856-1.365,2.295-1.632,3.482-0.575
						c0.513,0.466,0.955,1.009,1.313,1.611c1.082,1.799,1.612,3.814,1.973,5.881c0.097,0.555,0.168,1.115,0.253,1.677h0.897
						c0.021-0.099,0.039-0.183,0.054-0.268c0.168-0.996,0.298-2.001,0.525-2.982c0.404-1.755,0.992-3.441,2.022-4.92
						c0.369-0.524,0.796-0.988,1.351-1.311c0.929-0.542,1.963-0.422,2.672,0.394c0.343,0.396,0.615,0.853,0.804,1.348
						c0.76,2.034,0.729,4.158,0.541,6.286c-0.069,0.777-0.199,1.549-0.304,2.337c0.046,0.016,0.093,0.034,0.142,0.05
						c1.033,0.327,2.074,0.625,3.094,0.989c0.973,0.354,1.891,0.852,2.727,1.478C101.391,183.958,102.15,184.894,102.462,186.17z
						 M79.942,186.799c4.271,1.174,8.488,1.178,12.73,0c-0.186-0.729-0.496-1.417-0.919-2.029c-0.278-0.399-0.325-0.787-0.146-1.253
						c0.932-2.428,1.342-4.959,1.313-7.564c-0.011-1.1-0.112-2.2-0.53-3.233c-0.361-0.896-0.66-0.945-1.265-0.206
						c-0.578,0.706-0.961,1.53-1.288,2.383c-0.747,1.95-1.096,3.988-1.255,6.07c-0.05,0.667-0.544,1.044-1.186,0.927
						c-0.725-0.133-1.467-0.133-2.192,0c-0.64,0.116-1.123-0.262-1.174-0.941c-0.148-1.95-0.464-3.864-1.125-5.703
						c-0.375-1.044-0.81-2.061-1.552-2.891c-0.479-0.535-0.724-0.492-1.043,0.162c-0.362,0.741-0.497,1.55-0.559,2.359
						c-0.222,2.92,0.202,5.854,1.238,8.578c0.188,0.5,0.15,0.91-0.152,1.341C80.421,185.401,80.117,186.08,79.942,186.799z
						 M94.502,185.986c0.055-0.029,0.121-0.063,0.186-0.099c0.554-0.309,1.125-0.17,1.39,0.336c0.266,0.507,0.092,1.07-0.457,1.376
						c-0.478,0.272-0.972,0.515-1.478,0.725c-1.957,0.781-4.002,1.135-6.088,1.258c-2.95,0.175-5.862-0.014-8.692-0.943
						c-0.834-0.273-1.633-0.678-2.422-1.076c-0.116-0.055-0.22-0.135-0.304-0.233s-0.148-0.215-0.187-0.341
						c-0.038-0.126-0.051-0.259-0.037-0.391c0.014-0.132,0.055-0.259,0.12-0.372c0.259-0.491,0.825-0.649,1.336-0.373
						c0.089,0.049,0.179,0.096,0.242,0.129c0.322-0.673,0.633-1.322,0.941-1.973c0.025-0.045,0.034-0.099,0.025-0.15
						c-0.131-0.409-0.268-0.815-0.409-1.238c-1.76,0.431-3.457,0.944-4.969,1.953c-0.466,0.314-0.888,0.694-1.253,1.128
						c-0.547,0.645-0.535,1.311-0.021,1.986c0.223,0.289,0.479,0.549,0.763,0.772c1.002,0.804,2.158,1.297,3.349,1.7
						c2.635,0.892,5.352,1.271,8.111,1.392c3.345,0.147,6.655-0.1,9.913-0.935c1.502-0.385,2.975-0.874,4.282-1.756
						c0.519-0.35,0.984-0.772,1.386-1.26c0.483-0.591,0.447-1.203,0-1.826c-0.201-0.279-0.438-0.531-0.699-0.75
						c-1.147-0.961-2.497-1.499-3.891-1.939c-0.557-0.175-1.123-0.321-1.693-0.482c-0.141,0.429-0.27,0.808-0.389,1.189
						c-0.022,0.068-0.022,0.143,0,0.21C93.865,184.658,94.178,185.308,94.502,185.986z M77.807,196.532
						c-0.008,0.024-0.015,0.052-0.019,0.077c0,0.99-0.005,1.982,0,2.972c0,0.636,0.276,0.983,0.878,1.124
						c2.031,0.463,4.098,0.73,6.176,0.799c3.068,0.121,6.106-0.105,9.105-0.799c0.602-0.139,0.876-0.488,0.879-1.124
						c0-0.937,0-1.874,0-2.812c0-0.08-0.014-0.16-0.02-0.237C89.21,197.824,83.406,197.824,77.807,196.532z M94.816,192.611
						c-5.604,1.287-11.413,1.287-17.018,0v1.885c5.687,1.378,11.358,1.378,17.018,0V192.611z"/>
					<path fill="#FFFFFF" d="M102.462,177.14c-0.239,0.559-0.653,0.782-1.233,0.723c-0.229-0.024-0.457-0.004-0.725-0.004
						c0,0.337,0,0.649,0,0.961c-0.008,0.581-0.404,1.001-0.943,1.001c-0.537,0.001-0.939-0.417-0.947-0.998c0-0.304,0-0.612,0-0.961
						c-0.299,0-0.59,0-0.877,0c-0.606,0-1.021-0.407-1.012-0.992c0.006-0.565,0.422-0.961,1.012-0.968c0.281,0,0.563,0,0.885,0
						c0-0.335,0-0.647,0-0.961c0.007-0.582,0.404-1.003,0.941-1.003s0.938,0.42,0.947,1c0.004,0.304,0,0.612,0,0.961
						c0.252,0,0.487,0.02,0.723,0c0.578-0.057,0.996,0.165,1.234,0.722L102.462,177.14z"/>
					<path fill="#FFFFFF" d="M73.934,173.932c0,0.36,0.005,0.676,0,0.99c0,0.128-0.023,0.256-0.071,0.375
						c-0.047,0.119-0.116,0.227-0.204,0.318c-0.176,0.185-0.417,0.288-0.667,0.289c-0.124,0-0.247-0.024-0.362-0.073
						c-0.115-0.049-0.219-0.121-0.307-0.211c-0.178-0.183-0.278-0.432-0.279-0.691c-0.007-0.315,0-0.631,0-0.997
						c-0.303,0-0.59,0-0.882,0c-0.59,0-1.007-0.4-1.012-0.966c-0.005-0.582,0.412-0.989,1.019-0.994c0.282,0,0.563,0,0.874,0
						c0-0.345,0-0.659,0-0.973c0-0.26,0.099-0.509,0.275-0.693c0.176-0.184,0.417-0.288,0.667-0.288s0.491,0.102,0.668,0.285
						c0.178,0.183,0.278,0.432,0.278,0.691c0.005,0.314,0,0.627,0,0.977c0.33,0,0.631-0.004,0.933,0
						c0.558,0.009,0.963,0.427,0.96,0.987c-0.003,0.561-0.407,0.961-0.974,0.971C74.562,173.935,74.268,173.932,73.934,173.932z"/>
					<path fill="#FFFFFF" d="M98.609,170.996c0,0.194-0.059,0.384-0.162,0.545c-0.105,0.161-0.256,0.286-0.43,0.358
						c-0.174,0.072-0.363,0.09-0.547,0.05c-0.185-0.04-0.353-0.136-0.482-0.274c-0.131-0.139-0.219-0.315-0.254-0.506
						c-0.033-0.191-0.012-0.389,0.063-0.567c0.075-0.178,0.199-0.33,0.355-0.435c0.158-0.105,0.343-0.159,0.529-0.156
						c0.123,0.001,0.245,0.027,0.358,0.078c0.112,0.051,0.217,0.123,0.303,0.215c0.087,0.091,0.154,0.2,0.2,0.319
						C98.59,170.741,98.611,170.868,98.609,170.996z"/>
					<path fill="#FFFFFF" d="M72.041,180.802c0,0.194-0.055,0.385-0.159,0.546c-0.104,0.162-0.252,0.288-0.426,0.362
						s-0.364,0.093-0.548,0.054c-0.184-0.039-0.353-0.133-0.484-0.271c-0.132-0.139-0.221-0.314-0.256-0.505
						c-0.035-0.191-0.015-0.389,0.059-0.567c0.073-0.179,0.197-0.331,0.354-0.437c0.157-0.106,0.341-0.162,0.529-0.159
						c0.124,0,0.246,0.024,0.36,0.074c0.114,0.049,0.217,0.121,0.304,0.212c0.086,0.091,0.155,0.199,0.201,0.318
						C72.021,180.548,72.042,180.674,72.041,180.802z"/>
				</g>
			</g>
		</g>
	</g>
</g>
</svg>
