<svg width="56" height="56" viewBox="0 0 56 56" fill="none" xmlns="http://www.w3.org/2000/svg">
<path d="M56 28C56 12.536 43.464 0 28 0C12.536 0 -3.8147e-06 12.536 -3.8147e-06 28C-3.8147e-06 43.464 12.536 56 28 56C43.464 56 56 43.464 56 28Z" fill="#EF5D50"/>
<path d="M40.7731 33.4527L39.3198 23.2393C38.9464 20.6127 36.6931 18.666 34.0398 18.666H21.9598C19.3064 18.666 17.0531 20.6127 16.6798 23.2393L15.2264 33.4527C14.9331 35.506 16.5198 37.3327 18.5864 37.3327C19.4931 37.3327 20.3464 36.9727 20.9864 36.3327L23.9998 33.3327H31.9998L34.9998 36.3327C35.6398 36.9727 36.5064 37.3327 37.3998 37.3327C39.4798 37.3327 41.0664 35.506 40.7731 33.4527ZM37.9731 34.4127C37.8664 34.5327 37.6931 34.666 37.4131 34.666C37.2131 34.666 37.0264 34.586 36.8931 34.4527L33.1064 30.666H22.8931L19.1064 34.4527C18.9731 34.586 18.7864 34.666 18.5864 34.666C18.3064 34.666 18.1331 34.5327 18.0264 34.4127C17.9198 34.2927 17.8131 34.106 17.8531 33.826L19.3064 23.6127C19.5064 22.3193 20.6398 21.3327 21.9598 21.3327H34.0398C35.3598 21.3327 36.4931 22.3193 36.6798 23.626L38.1331 33.8393C38.1731 34.106 38.0664 34.2927 37.9731 34.4127Z" fill="white"/>
<path d="M24 22.666H22.6667V25.3327H20V26.666H22.6667V29.3327H24V26.666H26.6667V25.3327H24V22.666Z" fill="white"/>
<path d="M34.6663 29.3327C35.4027 29.3327 35.9997 28.7357 35.9997 27.9994C35.9997 27.263 35.4027 26.666 34.6663 26.666C33.93 26.666 33.333 27.263 33.333 27.9994C33.333 28.7357 33.93 29.3327 34.6663 29.3327Z" fill="white"/>
<path d="M32.0003 25.3327C32.7367 25.3327 33.3337 24.7357 33.3337 23.9993C33.3337 23.263 32.7367 22.666 32.0003 22.666C31.2639 22.666 30.667 23.263 30.667 23.9993C30.667 24.7357 31.2639 25.3327 32.0003 25.3327Z" fill="white"/>
</svg>
