<?xml version="1.0" encoding="utf-8"?>
<!-- Generator: Adobe Illustrator 16.0.0, SVG Export Plug-In . SVG Version: 6.00 Build 0)  -->
<!DOCTYPE svg PUBLIC "-//W3C//DTD SVG 1.1//EN" "http://www.w3.org/Graphics/SVG/1.1/DTD/svg11.dtd">
<svg version="1.1" id="Capa_1" xmlns="http://www.w3.org/2000/svg" xmlns:xlink="http://www.w3.org/1999/xlink" x="0px" y="0px"
	 width="174px" height="373px" viewBox="0 0 174 373" enable-background="new 0 0 174 373" xml:space="preserve">
<g id="Capa_2">
	<rect fill="#F7BEB9" width="174" height="373"/>
</g>
<g id="Capa_3">
	<g>
		<path fill="#EB5E51" d="M114.5,185.25c0-15.464-12.536-28-28-28s-28,12.536-28,28s12.536,28,28,28S114.5,200.714,114.5,185.25z"/>
		<path fill="#FFFFFF" d="M99.273,190.703l-1.453-10.214c-0.375-2.626-2.627-4.573-5.28-4.573H80.46
			c-2.653,0-4.907,1.947-5.28,4.573l-1.453,10.214c-0.293,2.053,1.293,3.879,3.36,3.879c0.907,0,1.76-0.359,2.4-1l3.014-3h8l3,3
			c0.64,0.641,1.506,1,2.399,1C97.98,194.582,99.566,192.756,99.273,190.703z M96.473,191.662c-0.105,0.121-0.279,0.254-0.56,0.254
			c-0.2,0-0.388-0.08-0.521-0.213l-3.787-3.787H81.393l-3.787,3.787c-0.133,0.133-0.32,0.213-0.52,0.213
			c-0.28,0-0.453-0.133-0.56-0.254c-0.106-0.119-0.213-0.307-0.173-0.586l1.454-10.213c0.2-1.293,1.333-2.28,2.653-2.28h12.08
			c1.319,0,2.453,0.987,2.64,2.293l1.453,10.214C96.673,191.355,96.566,191.543,96.473,191.662z"/>
		<path fill="#FFFFFF" d="M82.5,179.916h-1.333v2.667H78.5v1.333h2.667v2.667H82.5v-2.667h2.667v-1.333H82.5V179.916z"/>
		<path fill="#FFFFFF" d="M93.166,186.583c0.736,0,1.334-0.597,1.334-1.333s-0.598-1.333-1.334-1.333s-1.333,0.597-1.333,1.333
			S92.43,186.583,93.166,186.583z"/>
		<path fill="#FFFFFF" d="M90.5,182.583c0.736,0,1.334-0.597,1.334-1.333s-0.598-1.333-1.334-1.333s-1.333,0.597-1.333,1.333
			S89.764,182.583,90.5,182.583z"/>
	</g>
</g>
</svg>
