<svg width="262" height="261" viewBox="0 0 262 261" fill="none" xmlns="http://www.w3.org/2000/svg">
<circle cx="256.764" cy="54.4401" r="4.1877" transform="rotate(90 256.764 54.4401)" fill="#F4F7F5"/>
<circle cx="256.764" cy="4.1877" r="4.1877" transform="rotate(90 256.764 4.1877)" fill="#F4F7F5"/>
<circle cx="256.997" cy="104.956" r="4.1877" transform="rotate(90 256.997 104.956)" fill="#F4F7F5"/>
<circle cx="206.249" cy="54.4401" r="4.1877" transform="rotate(90 206.249 54.4401)" fill="#F4F7F5"/>
<circle cx="206.249" cy="4.1877" r="4.1877" transform="rotate(90 206.249 4.1877)" fill="#F4F7F5"/>
<circle cx="206.249" cy="104.956" r="4.1877" transform="rotate(90 206.249 104.956)" fill="#F4F7F5"/>
<circle cx="155.733" cy="54.4401" r="4.1877" transform="rotate(90 155.733 54.4401)" fill="#F4F7F5"/>
<circle cx="155.733" cy="4.1877" r="4.1877" transform="rotate(90 155.733 4.1877)" fill="#F4F7F5"/>
<circle cx="155.733" cy="104.956" r="4.1877" transform="rotate(90 155.733 104.956)" fill="#F4F7F5"/>
<circle cx="155.733" cy="155.471" r="4.1877" transform="rotate(90 155.733 155.471)" fill="#F4F7F5"/>
<circle cx="206.244" cy="155.471" r="4.1877" transform="rotate(90 206.244 155.471)" fill="#F4F7F5"/>
<circle cx="206.244" cy="205.564" r="4.1877" transform="rotate(90 206.244 205.564)" fill="#F4F7F5"/>
<circle cx="206.244" cy="256.564" r="4.1877" transform="rotate(90 206.244 256.564)" fill="#F4F7F5"/>
<circle cx="256.997" cy="155.471" r="4.1877" transform="rotate(90 256.997 155.471)" fill="#F4F7F5"/>
<circle cx="256.997" cy="205.564" r="4.1877" transform="rotate(90 256.997 205.564)" fill="#F4F7F5"/>
<circle cx="256.997" cy="256.564" r="4.1877" transform="rotate(90 256.997 256.564)" fill="#F4F7F5"/>
<circle cx="105.219" cy="54.4401" r="4.1877" transform="rotate(90 105.219 54.4401)" fill="#F4F7F5"/>
<circle cx="105.219" cy="4.1877" r="4.1877" transform="rotate(90 105.219 4.1877)" fill="#F4F7F5"/>
<circle cx="105.219" cy="104.956" r="4.1877" transform="rotate(90 105.219 104.956)" fill="#F4F7F5"/>
<circle cx="105.219" cy="155.471" r="4.1877" transform="rotate(90 105.219 155.471)" fill="#F4F7F5"/>
<circle cx="105.219" cy="205.986" r="4.1877" transform="rotate(90 105.219 205.986)" fill="#F4F7F5"/>
<circle cx="155.992" cy="205.986" r="4.1877" transform="rotate(90 155.992 205.986)" fill="#F4F7F5"/>
<circle cx="105.219" cy="256.502" r="4.1877" transform="rotate(90 105.219 256.502)" fill="#F4F7F5"/>
<circle cx="155.992" cy="256.502" r="4.1877" transform="rotate(90 155.992 256.502)" fill="#F4F7F5"/>
<circle cx="54.7029" cy="54.4401" r="4.1877" transform="rotate(90 54.7029 54.4401)" fill="#F4F7F5"/>
<circle cx="54.7029" cy="4.1877" r="4.1877" transform="rotate(90 54.7029 4.1877)" fill="#F4F7F5"/>
<circle cx="54.7029" cy="104.956" r="4.1877" transform="rotate(90 54.7029 104.956)" fill="#F4F7F5"/>
<circle cx="54.7029" cy="155.471" r="4.1877" transform="rotate(90 54.7029 155.471)" fill="#F4F7F5"/>
<circle cx="54.7029" cy="205.986" r="4.1877" transform="rotate(90 54.7029 205.986)" fill="#F4F7F5"/>
<circle cx="54.7029" cy="256.502" r="4.1877" transform="rotate(90 54.7029 256.502)" fill="#F4F7F5"/>
<circle cx="4.1873" cy="54.4401" r="4.1877" transform="rotate(90 4.1873 54.4401)" fill="#F4F7F5"/>
<circle cx="4.1873" cy="4.18776" r="4.1877" transform="rotate(90 4.1873 4.18776)" fill="#F4F7F5"/>
<circle cx="4.1873" cy="104.956" r="4.1877" transform="rotate(90 4.1873 104.956)" fill="#F4F7F5"/>
<circle cx="4.1873" cy="155.471" r="4.1877" transform="rotate(90 4.1873 155.471)" fill="#F4F7F5"/>
<circle cx="4.1873" cy="205.986" r="4.1877" transform="rotate(90 4.1873 205.986)" fill="#F4F7F5"/>
<circle cx="4.1873" cy="256.502" r="4.1877" transform="rotate(90 4.1873 256.502)" fill="#F4F7F5"/>
</svg>
