<?xml version="1.0" encoding="utf-8"?>
<!-- Generator: Adobe Illustrator 16.0.0, SVG Export Plug-In . SVG Version: 6.00 Build 0)  -->
<!DOCTYPE svg PUBLIC "-//W3C//DTD SVG 1.1//EN" "http://www.w3.org/Graphics/SVG/1.1/DTD/svg11.dtd">
<svg version="1.1" xmlns="http://www.w3.org/2000/svg" xmlns:xlink="http://www.w3.org/1999/xlink" x="0px" y="0px" width="174px"
	 height="373px" viewBox="0 0 174 373" enable-background="new 0 0 174 373" xml:space="preserve">
<g id="Capa_1">
	<rect fill="#CEE6D7" stroke="#000000" stroke-miterlimit="10" width="174" height="373"/>
</g>
<g id="Capa_2">
	<g>
		<path fill="#3BAE68" d="M87,158.5L87,158.5c-15.464,0-28,12.536-28,28l0,0c0,15.464,12.536,28,28,28l0,0c15.464,0,28-12.536,28-28
			l0,0C115,171.036,102.464,158.5,87,158.5z"/>
		<g>
			<defs>
				<rect id="SVGID_1_" x="70.641" y="170.439" width="32.32" height="32.32"/>
			</defs>
			<clipPath id="SVGID_2_">
				<use xlink:href="#SVGID_1_"  overflow="visible"/>
			</clipPath>
			<g clip-path="url(#SVGID_2_)">
				<path fill="#FFFFFF" d="M75.966,181.735c0.075,0,0.181-0.115,0.216-0.202c0.468-1.156,1.726-1.701,2.853-1.227
					c0.264,0.111,0.502,0.275,0.702,0.482c0.199,0.205,0.355,0.449,0.458,0.717c0.103,0.268,0.152,0.553,0.143,0.839
					s-0.075,0.567-0.194,0.829c-0.076,0.168-0.051,0.252,0.07,0.373c0.704,0.693,1.403,1.393,2.099,2.096
					c0.116,0.119,0.207,0.162,0.377,0.08c0.274-0.137,0.576-0.207,0.882-0.207c0.306,0,0.608,0.07,0.882,0.207
					c0.162,0.076,0.253,0.056,0.381-0.069c1.059-1.068,2.121-2.132,3.189-3.19c0.11-0.109,0.141-0.189,0.068-0.348
					c-0.188-0.396-0.25-0.842-0.176-1.274s0.281-0.831,0.591-1.143c0.628-0.638,1.562-0.796,2.445-0.427
					c0.043,0.018,0.089,0.024,0.136,0.021c0.046-0.004,0.091-0.018,0.131-0.04c0.422-0.395,0.824-0.805,1.227-1.202
					c-2-2.999-6.166-5.189-10.78-4.061c-4.246,1.038-6.942,4.576-7.497,7.758C74.77,181.744,75.368,181.752,75.966,181.735z"/>
				<path fill="#FFFFFF" d="M90.058,180.153c-0.212-0.004-0.419,0.056-0.597,0.169c-0.179,0.115-0.318,0.279-0.402,0.475
					c-0.084,0.193-0.108,0.408-0.07,0.616s0.138,0.399,0.285,0.552c0.148,0.151,0.338,0.256,0.545,0.299
					c0.207,0.044,0.422,0.025,0.617-0.055c0.197-0.078,0.365-0.215,0.484-0.389c0.119-0.176,0.184-0.382,0.185-0.594
					c0.003-0.139-0.021-0.277-0.073-0.408c-0.051-0.13-0.127-0.248-0.225-0.348c-0.098-0.101-0.214-0.18-0.343-0.234
					C90.336,180.182,90.197,180.154,90.058,180.153z"/>
				<path fill="#FFFFFF" d="M102.016,197.808c-2.113-2.112-4.226-4.224-6.338-6.337c-0.084-0.084-0.168-0.177-0.229-0.24
					c2.856-4.909,2.86-9.781,0.014-14.619l0.581-0.492c0.025,0.007,0.051,0.016,0.076,0.026c1.233,0.576,2.488,0.092,2.998-1.172
					c0.068-0.169,0.154-0.192,0.304-0.191h0.619v-1.079h-0.524c-0.232,0-0.348-0.056-0.436-0.287
					c-0.162-0.402-0.441-0.746-0.804-0.984c-0.361-0.239-0.788-0.361-1.221-0.351c-0.37,0.01-0.731,0.115-1.048,0.305
					c-0.318,0.189-0.582,0.457-0.768,0.778c-0.184,0.32-0.283,0.683-0.289,1.053c-0.004,0.37,0.086,0.735,0.262,1.06l-0.458,0.385
					c-0.038-0.045-0.089-0.098-0.135-0.154c-2.175-2.688-4.969-4.313-8.381-4.877c-0.442-0.074-0.888-0.127-1.333-0.19h-1.704
					c-0.444,0.063-0.893,0.108-1.333,0.193c-4.82,0.933-8.24,3.631-10.201,8.141c-0.556,1.282-0.884,2.652-0.969,4.047
					c-0.012,0.082-0.032,0.164-0.059,0.242v1.831c0.029,0.087,0.051,0.175,0.065,0.266c0.113,1.437,0.475,2.844,1.068,4.157
					c1.559,3.439,4.103,5.841,7.63,7.201c1.904,0.717,3.946,0.988,5.972,0.795c2.024-0.195,3.979-0.85,5.712-1.915
					c0.252-0.156,0.391-0.139,0.602,0.075c2.109,2.129,4.229,4.252,6.355,6.367c0.864,0.857,1.892,1.158,3.059,0.732
					c1.035-0.375,1.645-1.144,1.82-2.225C103.084,199.344,102.719,198.51,102.016,197.808z M97.102,173.167
					c0.142,0,0.282,0.029,0.414,0.084c0.131,0.055,0.249,0.136,0.35,0.237c0.1,0.101,0.178,0.221,0.23,0.353s0.08,0.273,0.078,0.415
					c-0.005,0.281-0.121,0.549-0.323,0.745c-0.202,0.195-0.474,0.303-0.755,0.299c-0.139,0-0.277-0.027-0.405-0.081
					c-0.128-0.054-0.245-0.132-0.343-0.231s-0.176-0.216-0.227-0.346c-0.053-0.129-0.078-0.268-0.076-0.407
					c0-0.281,0.11-0.551,0.309-0.751C96.551,173.284,96.82,173.17,97.102,173.167z M83.672,195.191
					c-6.409-0.242-11.021-5.623-10.86-11.512c0.184-6.717,5.736-11.271,11.602-11.069c6.675,0.23,11.117,5.712,11.006,11.452
					C95.288,190.869,89.566,195.49,83.672,195.191z"/>
				<path fill="#FFFFFF" d="M93.074,179.004l-1.148,1.152c0.563,1.17,0.145,2.082-0.382,2.596c-0.577,0.564-1.53,0.888-2.576,0.338
					c-0.032,0.02-0.063,0.043-0.094,0.066c-1.097,1.096-2.186,2.188-3.289,3.275c-0.132,0.131-0.118,0.23-0.052,0.383
					c0.187,0.41,0.237,0.867,0.146,1.309c-0.091,0.439-0.319,0.84-0.652,1.143c-0.777,0.686-1.898,0.76-2.698,0.169
					c-0.408-0.287-0.702-0.708-0.831-1.19c-0.129-0.48-0.084-0.992,0.125-1.445c0.074-0.164,0.056-0.257-0.071-0.377
					c-0.387-0.372-0.759-0.76-1.141-1.137l-1.12-1.123c-1.434,0.611-2.47,0.21-3.137-1.17c-0.029-0.043-0.068-0.078-0.113-0.104
					s-0.095-0.039-0.146-0.043c-0.567-0.014-1.136,0-1.704-0.01c-0.186,0-0.259,0.056-0.268,0.248
					c-0.048,1.076-0.009,2.143,0.253,3.194c0.643,2.604,2.073,4.671,4.301,6.151c2.209,1.467,4.652,1.971,7.277,1.566
					c1.894-0.285,3.662-1.115,5.091-2.389c1.866-1.643,2.994-3.707,3.373-6.172c0.292-1.891,0.041-3.825-0.723-5.579
					C93.366,179.562,93.212,179.282,93.074,179.004z"/>
				<path fill="#FFFFFF" d="M83.586,186.604c-0.212-0.002-0.42,0.06-0.597,0.176c-0.177,0.117-0.316,0.283-0.398,0.479
					s-0.105,0.412-0.065,0.62c0.041,0.208,0.141,0.399,0.291,0.551c0.149,0.151,0.339,0.255,0.547,0.297s0.424,0.022,0.62-0.058
					c0.197-0.08,0.365-0.217,0.484-0.393c0.118-0.176,0.182-0.384,0.183-0.596c-0.003-0.282-0.116-0.553-0.313-0.753
					C84.137,186.727,83.868,186.61,83.586,186.604z"/>
				<path fill="#FFFFFF" d="M78.201,181.229c-0.139-0.004-0.278,0.021-0.407,0.072c-0.13,0.052-0.248,0.128-0.348,0.226
					s-0.179,0.214-0.233,0.343c-0.054,0.128-0.082,0.266-0.083,0.405c-0.003,0.21,0.056,0.417,0.171,0.594
					c0.114,0.177,0.279,0.315,0.472,0.398s0.407,0.106,0.614,0.068s0.397-0.138,0.548-0.285c0.15-0.147,0.254-0.335,0.297-0.542
					c0.043-0.205,0.024-0.42-0.055-0.615c-0.079-0.195-0.213-0.362-0.388-0.48C78.617,181.293,78.412,181.229,78.201,181.229z"/>
			</g>
		</g>
	</g>
</g>
</svg>
