<svg width="57" height="56" viewBox="0 0 57 56" fill="none" xmlns="http://www.w3.org/2000/svg">
<rect width="56" height="56" rx="28" transform="matrix(-1 0 0 1 56.5 0)" fill="#36AF67"/>
<g clip-path="url(#clip0_2225_2732)">
<path d="M17.4659 23.2355C17.541 23.2355 17.6472 23.12 17.6818 23.0339C18.1498 21.877 19.4072 21.3322 20.5347 21.8061C20.7984 21.9184 21.0368 22.0824 21.2361 22.2884C21.4353 22.4944 21.5912 22.7383 21.6946 23.0056C21.7979 23.2729 21.8467 23.5581 21.838 23.8446C21.8292 24.131 21.7631 24.4128 21.6436 24.6733C21.5677 24.842 21.593 24.9263 21.7136 25.0469C22.4175 25.7406 23.1169 26.4394 23.8118 27.1433C23.9282 27.2622 24.0192 27.3043 24.1896 27.2225C24.4635 27.0861 24.7653 27.0151 25.0713 27.0151C25.3772 27.0151 25.679 27.0861 25.9529 27.2225C26.1157 27.2993 26.2059 27.2782 26.3333 27.1534C27.3919 26.0852 28.4553 25.0219 29.5235 23.9633C29.634 23.8536 29.6635 23.7735 29.5918 23.615C29.4034 23.2185 29.3421 22.7735 29.4164 22.3408C29.4907 21.9082 29.6969 21.5091 30.0067 21.1981C30.6341 20.5606 31.5677 20.4021 32.4523 20.7714C32.4952 20.7887 32.5415 20.796 32.5877 20.7927C32.6338 20.7895 32.6786 20.7759 32.7188 20.7529C33.1404 20.3582 33.5427 19.9484 33.9458 19.5503C31.9455 16.5516 27.7795 14.3616 23.165 15.4899C18.9189 16.528 16.2229 20.0656 15.668 23.2481C16.2701 23.2448 16.868 23.2515 17.4659 23.2355Z" fill="white"/>
<path d="M31.5577 21.6535C31.3462 21.6495 31.1383 21.7085 30.9603 21.8229C30.7824 21.9374 30.6425 22.1021 30.5585 22.2963C30.4745 22.4904 30.45 22.7052 30.4883 22.9132C30.5266 23.1213 30.6259 23.3132 30.7736 23.4647C30.9213 23.6162 31.1107 23.7204 31.3177 23.7639C31.5247 23.8075 31.74 23.7886 31.9362 23.7095C32.1325 23.6304 32.3007 23.4948 32.4197 23.3199C32.5386 23.1449 32.6029 22.9386 32.6043 22.727C32.6075 22.5874 32.5829 22.4486 32.5318 22.3186C32.4807 22.1887 32.4041 22.0703 32.3067 21.9703C32.2092 21.8703 32.0927 21.7908 31.9641 21.7364C31.8355 21.682 31.6973 21.6538 31.5577 21.6535Z" fill="white"/>
<path d="M43.515 39.3074C41.4023 37.1958 39.2901 35.0837 37.1784 32.971C37.0941 32.8867 37.0098 32.7939 36.9482 32.7298C39.8048 27.8213 39.8092 22.9485 36.9617 18.1115L37.5427 17.619C37.5685 17.6262 37.5938 17.6349 37.6186 17.6451C38.8524 18.2211 40.1072 17.737 40.6174 16.473C40.6849 16.3043 40.7717 16.2815 40.921 16.2824H41.54V15.203H41.0155C40.7835 15.203 40.668 15.1473 40.5795 14.9162C40.4185 14.5138 40.1384 14.1702 39.7766 13.9315C39.4149 13.6928 38.9888 13.5703 38.5555 13.5805C38.1858 13.5909 37.8248 13.6958 37.5072 13.8853C37.1895 14.0748 36.9257 14.3425 36.7409 14.663C36.5561 14.9834 36.4565 15.3458 36.4516 15.7157C36.4467 16.0855 36.5367 16.4505 36.7129 16.7757L36.255 17.1611C36.2162 17.1164 36.1656 17.0633 36.1201 17.0068C33.9449 14.3195 31.1513 12.6936 27.7393 12.1292C27.2965 12.0558 26.8513 12.0019 26.4068 11.9395H24.7025C24.2581 12.0027 23.8095 12.0474 23.3693 12.1326C18.5489 13.0652 15.1293 15.7638 13.1686 20.2728C12.6128 21.5555 12.2849 22.9252 12.1997 24.3206C12.1873 24.4028 12.1675 24.4838 12.1406 24.5626V26.3934C12.1695 26.48 12.1912 26.5688 12.2056 26.659C12.3186 28.0962 12.6801 29.5028 13.274 30.8164C14.833 34.2564 17.3764 36.657 20.9043 38.018C22.8082 38.7347 24.8508 39.0063 26.8758 38.8121C28.9008 38.6178 30.8545 37.9629 32.5874 36.8973C32.8404 36.7413 32.9779 36.759 33.1896 36.9724C35.2995 39.1019 37.4179 41.2242 39.5447 43.3392C40.4091 44.1976 41.4363 44.4987 42.6042 44.0728C43.639 43.6967 44.2487 42.9285 44.4233 41.8474C44.5843 40.8439 44.2192 40.0099 43.515 39.3074ZM38.6011 14.6675C38.7432 14.6679 38.8839 14.6965 39.015 14.7516C39.146 14.8067 39.2648 14.8873 39.3646 14.9886C39.4643 15.0899 39.543 15.21 39.5961 15.3419C39.6491 15.4738 39.6755 15.6149 39.6738 15.757C39.6689 16.0382 39.5527 16.3059 39.3506 16.5014C39.1486 16.697 38.8772 16.8044 38.596 16.8001C38.4568 16.8005 38.3189 16.7731 38.1904 16.7196C38.0618 16.6661 37.9452 16.5875 37.8474 16.4884C37.7496 16.3893 37.6725 16.2718 37.6206 16.1426C37.5687 16.0134 37.5431 15.8751 37.5452 15.7359C37.5448 15.4546 37.6555 15.1845 37.8532 14.9844C38.051 14.7843 38.3198 14.6704 38.6011 14.6675ZM25.1722 36.6916C18.7631 36.4487 14.1519 31.0677 14.3121 25.179C14.496 18.4623 20.0483 13.9085 25.9144 14.1101C32.5891 14.3403 37.0308 19.8225 36.9204 25.5619C36.788 32.3697 31.067 36.9901 25.1722 36.6916Z" fill="white"/>
<path d="M34.5746 20.5039L33.426 21.6567C33.9877 22.8263 33.5702 23.7379 33.044 24.2523C32.4664 24.8165 31.5143 25.1394 30.4677 24.5896C30.4352 24.6099 30.4039 24.6321 30.3741 24.6562C29.2778 25.7525 28.1883 26.8446 27.0852 27.9316C26.9528 28.0631 26.9672 28.1618 27.0338 28.3144C27.2196 28.724 27.2707 29.182 27.1798 29.6225C27.0889 30.063 26.8606 30.4633 26.5278 30.7659C25.7503 31.4514 24.6295 31.5248 23.8292 30.9345C23.4214 30.6476 23.1274 30.2265 22.9985 29.7448C22.8697 29.2631 22.9142 28.7515 23.1242 28.2992C23.1976 28.1348 23.1799 28.042 23.0534 27.9214C22.6663 27.5496 22.2944 27.1625 21.9124 26.7855L20.7925 25.6614C19.3588 26.2737 18.3224 25.8723 17.6554 24.4918C17.6258 24.4496 17.5871 24.4145 17.5421 24.3893C17.4971 24.364 17.4471 24.3492 17.3956 24.3459C16.8281 24.3324 16.2597 24.3459 15.6913 24.3358C15.5058 24.3358 15.4324 24.3915 15.424 24.5846C15.3759 25.6598 15.4147 26.7265 15.677 27.7781C16.3196 30.383 17.7498 32.4499 19.9778 33.9299C22.1873 35.3963 24.6304 35.8998 27.2547 35.4958C29.1478 35.2112 30.917 34.381 32.3458 33.1068C34.212 31.4649 35.3403 29.4006 35.719 26.9356C36.0109 25.045 35.7603 23.1103 34.9963 21.3565C34.8664 21.0613 34.7121 20.7822 34.5746 20.5039Z" fill="white"/>
<path d="M25.0861 28.1035C24.874 28.1019 24.6661 28.1632 24.4888 28.2798C24.3115 28.3964 24.1728 28.5629 24.0903 28.7584C24.0078 28.9538 23.9851 29.1693 24.0251 29.3777C24.0652 29.586 24.1662 29.7778 24.3153 29.9287C24.4645 30.0796 24.655 30.1829 24.8629 30.2254C25.0708 30.2679 25.2866 30.2478 25.483 30.1676C25.6794 30.0873 25.8476 29.9506 25.9663 29.7748C26.0849 29.5989 26.1487 29.3917 26.1495 29.1796C26.1463 28.8974 26.0337 28.6274 25.8353 28.4267C25.6369 28.2259 25.3683 28.1101 25.0861 28.1035Z" fill="white"/>
<path d="M19.7011 22.7278C19.5618 22.7249 19.4233 22.7498 19.2937 22.801C19.164 22.8523 19.046 22.9289 18.9463 23.0263C18.8467 23.1238 18.7675 23.2401 18.7133 23.3685C18.6592 23.497 18.6312 23.6349 18.631 23.7743C18.6278 23.9848 18.6872 24.1914 18.8017 24.3681C18.9162 24.5448 19.0806 24.6834 19.274 24.7665C19.4674 24.8496 19.6811 24.8734 19.8881 24.8348C20.095 24.7963 20.2858 24.6971 20.4363 24.5499C20.5869 24.4028 20.6902 24.2142 20.7334 24.0082C20.7766 23.8021 20.7576 23.5879 20.6788 23.3927C20.6 23.1975 20.4651 23.0301 20.291 22.9117C20.1169 22.7933 19.9116 22.7293 19.7011 22.7278Z" fill="white"/>
</g>
<defs>
<clipPath id="clip0_2225_2732">
<rect width="32.3206" height="32.3206" fill="white" transform="translate(12.1406 11.9395)"/>
</clipPath>
</defs>
</svg>
